<svg width="75" height="76" fill="none" xmlns="http://www.w3.org/2000/svg"><g clip-path="url(#clip0)"><path fill="#000" d="M0 0h75v75.394H0z"/><path d="M75 37.697C75 16.875 58.213 0 37.5 0S0 16.875 0 37.697c0 20.822 16.787 37.697 37.5 37.697.22 0 .44 0 .66-.015V46.046h-8.057v-9.439h8.056v-6.95c0-8.055 4.893-12.443 12.041-12.443 3.428 0 6.372.25 7.222.368v8.423H52.5c-3.882 0-4.644 1.855-4.644 4.58v6.007h9.302l-1.216 9.44h-8.086v27.904C63.53 69.416 75 54.91 75 37.696z" fill="#E0218A"/></g><defs><clipPath id="clip0"><path fill="#fff" d="M0 0h75v75.394H0z"/></clipPath></defs></svg>