<svg width="75" height="75" fill="none" xmlns="http://www.w3.org/2000/svg"><path d="M54.698 0H20.302C9.107 0 0 9.107 0 20.302v34.397c0 11.194 9.107 20.3 20.302 20.3h34.397c11.194 0 20.3-9.106 20.3-20.3V20.302C75 9.107 65.894 0 54.7 0zm15.905 54.699c0 8.77-7.135 15.904-15.905 15.904H20.302c-8.77 0-15.905-7.135-15.905-15.904V20.302c0-8.77 7.135-15.905 15.905-15.905h34.397c8.77 0 15.904 7.135 15.904 15.905v34.397z" fill="#E0218A"/><path d="M37.5 16.993c-11.308 0-20.507 9.199-20.507 20.507 0 11.308 9.199 20.507 20.507 20.507 11.308 0 20.507-9.2 20.507-20.507 0-11.308-9.2-20.507-20.507-20.507zm0 36.617c-8.883 0-16.11-7.227-16.11-16.11s7.227-16.11 16.11-16.11 16.11 7.227 16.11 16.11-7.227 16.11-16.11 16.11zm20.998-43.9a6.066 6.066 0 00-6.06 6.06 6.066 6.066 0 006.06 6.06 6.067 6.067 0 006.06-6.06 6.066 6.066 0 00-6.06-6.06zm0 7.722a1.665 1.665 0 01-1.663-1.662 1.664 1.664 0 013.326 0c0 .916-.746 1.662-1.663 1.662z" fill="#E0218A"/></svg>