<svg width="75" height="75" fill="none" xmlns="http://www.w3.org/2000/svg"><path d="M32.83 44.526L45.026 37.5 32.83 30.475v14.05z" fill="#E0218A"/><path d="M37.5 0C16.793 0 0 16.793 0 37.5 0 58.208 16.793 75 37.5 75 58.208 75 75 58.208 75 37.5 75 16.793 58.208 0 37.5 0zm23.432 37.538s0 7.606-.965 11.273a5.871 5.871 0 01-4.13 4.13c-3.668.965-18.337.965-18.337.965s-14.63 0-18.336-1.003a5.872 5.872 0 01-4.131-4.131c-.965-3.628-.965-11.272-.965-11.272s0-7.605.965-11.272c.54-2.007 2.162-3.629 4.13-4.169 3.668-.965 18.337-.965 18.337-.965s14.669 0 18.336 1.003a5.872 5.872 0 014.131 4.131c1.004 3.667.965 11.31.965 11.31z" fill="#E0218A"/></svg>