<svg width="170" height="172" fill="none" xmlns="http://www.w3.org/2000/svg"><path fill-rule="evenodd" clip-rule="evenodd" d="M9.043 4.521a4.521 4.521 0 11-9.043 0 4.521 4.521 0 019.043 0zm0 40.692a4.521 4.521 0 11-9.043 0 4.521 4.521 0 019.043 0zM4.52 90.425a4.521 4.521 0 100-9.042 4.521 4.521 0 000 9.043zm4.522 36.171a4.521 4.521 0 11-9.043 0 4.521 4.521 0 019.043 0zM4.52 171.809a4.522 4.522 0 10-.001-9.044 4.522 4.522 0 00.001 9.044zM49.281 4.521a4.521 4.521 0 11-9.042 0 4.521 4.521 0 019.043 0zm-4.52 45.213a4.521 4.521 0 100-9.042 4.521 4.521 0 000 9.042zm4.52 36.17a4.521 4.521 0 11-9.042 0 4.521 4.521 0 019.043 0zm-4.52 45.213a4.521 4.521 0 100-9.042 4.521 4.521 0 000 9.042zm4.52 36.17a4.522 4.522 0 11-9.043 0 4.522 4.522 0 019.044 0zM85 9.043A4.521 4.521 0 1085 0a4.521 4.521 0 000 9.043zm4.521 36.17a4.521 4.521 0 11-9.042 0 4.521 4.521 0 019.042 0zM85 90.425a4.521 4.521 0 100-9.042 4.521 4.521 0 000 9.043zm4.521 36.171a4.521 4.521 0 11-9.042 0 4.521 4.521 0 019.042 0zM85 171.809a4.522 4.522 0 10-.001-9.044A4.522 4.522 0 0085 171.81zM129.761 4.521a4.522 4.522 0 11-9.044-.001 4.522 4.522 0 019.044.001zm-4.522 45.213a4.522 4.522 0 100-9.044 4.522 4.522 0 000 9.044zm4.522 36.17a4.522 4.522 0 11-9.044-.001 4.522 4.522 0 019.044.001zm-4.522 45.213a4.522 4.522 0 100-9.043 4.522 4.522 0 000 9.043zm4.522 36.17a4.523 4.523 0 11-9.045-.001 4.523 4.523 0 019.045.001zM165.479 9.043a4.521 4.521 0 100-9.043 4.521 4.521 0 000 9.043zM170 45.213a4.521 4.521 0 11-9.042 0 4.521 4.521 0 019.042 0zm-4.521 45.212a4.521 4.521 0 100-9.042 4.521 4.521 0 000 9.043zM170 126.596a4.52 4.52 0 11-9.042 0 4.52 4.52 0 019.042 0zm-4.521 45.213a4.522 4.522 0 10-.001-9.043 4.522 4.522 0 00.001 9.043z" fill="#B4CDFF"/></svg>