<svg version="1.0" xmlns="http://www.w3.org/2000/svg" width="1545.333" height="1706.667" viewBox="0 0 1159 1280"><path d="M388.8.9c-2 .4-4.3 1.2-5 1.8-.7.6-3.7 1.3-6.6 1.6-6.4.7-7.4 1.3-19.5 10.4-21.9 16.5-32.8 37.6-31.3 60.9.6 10.1 1.5 13.2 8.7 28 2.6 5.5 7.6 16.5 10.9 24.5 3.4 7.9 11.2 24.1 17.4 35.9 6.3 11.8 29.2 55.7 51.1 97.5 76.4 146 122.5 232 136.3 253.8 3.2 5.1 6.9 11.2 8.1 13.7 4.8 9.5 19.1 27.2 25.7 32 5.7 4 20 9.5 30.1 11.4 10 1.9 15.2 1.2 32.4-4.5 22.5-7.4 20.9-5.8 57.6-57.7 7.2-10.2 17.5-26.1 22.9-35.4 5.4-9.2 10.1-16.8 10.5-16.8 1.3 0 19.2 16.5 26.7 24.5 30.6 32.8 52.1 71.9 61.5 112 4.3 18.3 5.9 33.1 5.9 54.5-.1 29.3-3.7 52.3-12.7 79.5-24.6 75-84.3 134.8-159.2 159.5-28.1 9.2-49.2 12.5-80.8 12.5-31.6 0-52.7-3.3-80.8-12.5-36.3-12-71.6-33.8-98.7-61.1-50.9-51.1-77.6-122-73-194.2 3.2-50.9 18.8-93.3 49.6-134.8 11.6-15.6 16.3-29.2 16.4-46.5 0-21.8-9.5-41.4-27-55.5-3.8-3-24.9-18.5-46.7-34.4-21.9-15.9-54-39.3-71.3-51.9-36.7-26.8-39.8-28.8-50.5-32.3-6.7-2.1-9.9-2.6-19.5-2.6-14-.1-22 1.9-37.3 9.3-12.8 6.2-17.8 11.2-31.9 31-61.3 86.8-97.3 183.6-107 287.5-1.9 20.4-1.6 77.6.6 98 4.1 39.5 9.9 70.7 19.7 105 62.8 221.6 255.4 388.3 482 417.4 29.1 3.7 43.1 4.6 75.4 4.6 32.3 0 46.3-.9 75.4-4.6 96.6-12.4 189.9-50.5 269.6-110.1 117.7-88 198.1-216.3 224.6-358.8 7.1-38 9.3-63.8 9.3-106.5 0-37.6-1.1-53.1-6-84.5-22.5-145.9-102.8-277.7-225.9-370.5-7.1-5.3-13.6-10-14.2-10.2-.7-.3-1.3-.9-1.3-1.3 0-.5 6.5-10.5 14.5-22.3 13.9-20.6 17.1-26.3 20-35.2 1.3-3.9 4.7-12.7 6.8-17.2.5-1.2 1-4.1 1.2-6.5.1-2.4.5-5.1 1-6.1 1.3-3.1-.3-16.3-3.1-24.5-7.7-23.2-24-39.1-47.7-46.6-10.3-3.3-13.7-3.8-34.3-5.6-12.6-1-34.4-2.4-48.4-2.9-14-.6-29.8-1.3-35-1.6-5.2-.3-32.4-1.2-60.5-2.1-28-.8-54.8-1.9-59.5-2.4-4.7-.6-13.4-1-19.5-1-6 0-15.7-.5-21.5-1-5.8-.6-31.6-1.5-57.5-2-25.8-.6-54.9-1.5-64.5-2C480 .7 393.5-.1 388.8.9z"/></svg>