<svg width="370" height="38" fill="none" xmlns="http://www.w3.org/2000/svg"><path fill-rule="evenodd" clip-rule="evenodd" d="M119.737 32.802h-.274c-1.672 0-3.669.106-3.669 1.192 0 .65.742.891 1.631.891 2.267 0 2.312-1.25 2.312-1.784v-.299zm.091 1.696h-.028c-.431.592-1.52.912-2.484.912-2.223 0-2.579-.95-2.579-1.397 0-1.66 2.791-1.737 4.816-1.737h.184v-.251c0-.843-.474-1.27-1.777-1.27-.812 0-1.578.116-2.302.408v-.594a9.295 9.295 0 012.302-.338c1.933 0 2.745.55 2.745 1.84v2.182c0 .4 0 .7.076 1.04h-.953v-.795zm3.072-2.987c0-.38 0-.765-.061-1.164h.933v.883h.032c.321-.448.908-1 2.528-1 1.936 0 2.67.814 2.67 1.903v3.16h-.969v-3.006c0-.932-.518-1.532-1.85-1.532-1.767 0-2.318.98-2.318 1.804v2.735h-.965V31.51v.001zm17.243-2.348l-2.334 3.735h4.647l-2.313-3.735zm-.524-.639h1.195l4.25 6.77h-1.105l-1.15-1.815h-5.396l-1.154 1.814h-1.028l4.388-6.77v.002-.001zm7.089 0h1.642l3.911 5.955 3.925-5.954h1.516v6.769h-1.054v-6.1h-.032l-3.896 6.098h-.905l-4.017-6.099h-.03v6.099h-1.057v-6.77l-.003.003v-.001zm13.624 0h1.332l5.44 5.955h.036v-5.954h1.057v6.769h-1.426l-5.353-5.838h-.032v5.838h-1.054v-6.77zm15.214 0h1.059v2.996h5.412v-2.995h1.058v6.769h-1.056v-3.19h-5.414v3.189h-1.057v-6.77l-.002.002v-.001zm14.987 3.946c0-.864-.549-1.715-1.992-1.715-1.427 0-2.303.9-2.303 1.716h4.295v-.001zm.473 2.666a9.668 9.668 0 01-2.269.273c-2.59 0-3.553-1.106-3.553-2.59 0-1.512 1.318-2.588 3.294-2.588 2.207 0 3.113 1.125 3.113 2.453v.31h-5.353c0 1.05.892 1.892 2.578 1.892.703 0 1.733-.186 2.19-.369v.619zm6.923-2.334h-.274c-1.671 0-3.669.106-3.669 1.192 0 .65.736.891 1.625.891 2.27 0 2.318-1.25 2.318-1.784v-.299zm.09 1.696h-.029c-.43.592-1.519.912-2.487.912-2.221 0-2.575-.95-2.575-1.397 0-1.66 2.793-1.737 4.818-1.737h.183v-.251c0-.843-.475-1.27-1.78-1.27-.808 0-1.581.116-2.299.408v-.594a9.309 9.309 0 012.299-.338c1.933 0 2.746.55 2.746 1.84v2.182c0 .4 0 .7.076 1.04h-.952v-.795zm3.254.795h.969v-7.274h-.969v7.274zm6.875-4.422h-1.777v3.199c0 .449.26.816 1.043.816.367 0 .612-.049.887-.118l.062.505a5.52 5.52 0 01-1.182.136c-1.716 0-1.779-.747-1.779-1.648v-2.89h-1.531v-.524h1.531v-1.195l.969-.21v1.404h1.777v.525zm1.847-2.852h.964v3.163h.031c.412-.544 1.287-.951 2.435-.951 2.106 0 2.668.881 2.668 2.105v2.957h-.965v-2.948c0-.853-.26-1.59-1.853-1.59-1.721 0-2.316 1.027-2.316 1.89v2.648h-.964v-7.274zm13.726 2.987c-.522-.143-1.15-.251-1.674-.251-1.883 0-2.942.863-2.942 2.064 0 1.126 1.072 2.067 2.836 2.067a7.659 7.659 0 001.764-.223l.093.571c-.658.145-1.27.174-2.007.174-2.52 0-3.742-1.211-3.742-2.589 0-1.52 1.547-2.588 3.864-2.588.935 0 1.607.134 1.885.193l-.077.582zm6.363 1.796h-.277c-1.673 0-3.665.106-3.665 1.192 0 .65.735.891 1.625.891 2.271 0 2.317-1.25 2.317-1.784v-.299zm.092 1.696h-.032c-.428.592-1.52.912-2.486.912-2.223 0-2.576-.95-2.576-1.397 0-1.66 2.791-1.737 4.817-1.737h.185v-.251c0-.843-.476-1.27-1.782-1.27-.812 0-1.579.116-2.299.408v-.594a9.28 9.28 0 012.299-.338c1.933 0 2.746.55 2.746 1.84v2.182c0 .4 0 .7.076 1.04h-.948v-.795zm3.066-3.047c0-.542 0-.745-.062-1.104h.966v.952h.035c.353-.553 1.01-1.068 2.008-1.068.23 0 .503.03.676.058v.639a3.977 3.977 0 00-.707-.057c-1.535 0-1.947 1.085-1.947 1.977v2.445h-.969V31.45v.001zm9.897 1.02c0-.865-.554-1.716-1.998-1.716-1.42 0-2.297.9-2.297 1.716h4.295zm.474 2.665a9.662 9.662 0 01-2.267.273c-2.591 0-3.561-1.106-3.561-2.59 0-1.512 1.323-2.588 3.3-2.588 2.206 0 3.114 1.125 3.114 2.453v.31h-5.355c0 1.05.892 1.892 2.577 1.892.707 0 1.734-.186 2.192-.369v.619zm12.338-4.13c-.525-.143-1.156-.251-1.673-.251-1.886 0-2.945.863-2.945 2.064 0 1.126 1.07 2.067 2.836 2.067.612 0 1.18-.088 1.762-.223l.093.571c-.659.145-1.276.174-2.007.174-2.517 0-3.742-1.211-3.742-2.589 0-1.52 1.547-2.588 3.862-2.588.935 0 1.61.134 1.887.193l-.073.582zm4.726 3.88c1.685 0 2.588-.922 2.588-2.067 0-1.142-.903-2.064-2.588-2.064-1.691 0-2.596.922-2.596 2.064 0 1.145.905 2.067 2.596 2.067zm0-4.655c2.529 0 3.648 1.242 3.648 2.588 0 1.348-1.119 2.59-3.648 2.59-2.533 0-3.65-1.242-3.65-2.59 0-1.346 1.117-2.588 3.65-2.588zm15.065 5.062v-3.288c0-.698-.412-1.25-1.657-1.25-1.058 0-2.101.571-2.101 1.804v2.735h-.968v-3.289c0-.698-.411-1.25-1.652-1.25-1.057 0-2.099.571-2.099 1.804v2.735h-.967V31.51c0-.38 0-.765-.064-1.164h.933v.835l.035.01c.308-.339.763-.961 2.435-.961.692 0 1.83.184 2.074 1.046h.027c.353-.582 1.272-1.046 2.499-1.046 1.582 0 2.474.697 2.474 1.659v3.403h-.969v.001zm6.644-4.538c-1.718 0-2.317 1.161-2.317 2.064 0 .902.6 2.067 2.317 2.067 1.839 0 2.312-1.106 2.312-2.067 0-.96-.473-2.064-2.312-2.064zm-3.283-.408h.966l-.059.902h.028c.247-.27.844-1.018 2.5-1.018 2.302 0 3.221 1.086 3.221 2.588 0 1.465-1.073 2.59-3.221 2.59-1.226 0-1.962-.32-2.438-.96h-.031v2.882h-.966v-6.985.001zm13.157 2.455h-.28c-1.665 0-3.662.106-3.662 1.192 0 .65.735.891 1.629.891 2.267 0 2.313-1.25 2.313-1.784v-.299zm.089 1.696h-.027c-.432.592-1.518.912-2.487.912-2.223 0-2.576-.95-2.576-1.397 0-1.66 2.794-1.737 4.817-1.737h.184v-.251c0-.843-.476-1.27-1.778-1.27-.815 0-1.581.116-2.301.408v-.594a9.287 9.287 0 012.301-.338c1.933 0 2.744.55 2.744 1.84v2.182c0 .4 0 .7.074 1.04h-.951v-.795zm3.254-2.987c0-.378 0-.765-.063-1.163h.933v.884h.033c.322-.45.905-1 2.527-1 1.933 0 2.668.812 2.668 1.902v3.16h-.97v-3.006c0-.932-.515-1.532-1.85-1.532-1.762 0-2.314.98-2.314 1.804v2.734h-.964v-3.783zm10.758 4.522c-.367.676-.917 1.355-2.009 1.355a7.378 7.378 0 01-1.042-.077l.09-.523c.188.037.371.078.727.078.828 0 1.099-.439 1.406-1.077l.2-.438-2.776-5.003h1.057l2.191 4.131-.013-.01h.032l2.253-4.12h1.014l-3.128 5.684h-.002zm15.902-13.609h8.067l5.607-6.098-4.296-4.128-9.378 10.227v-.001zm17.466-10.223l-8.088-.003 10.643 10.22 4.102-3.808-6.657-6.409zm.77-9.702l-7.87 8.622h8.066l5.789-6.355-3.526-3.858c-.952.344-1.781.86-2.459 1.59v.001z" fill="#3C3B3D"/><path fill-rule="evenodd" clip-rule="evenodd" d="M352.62 2.664c-.944-1.028-2.236-1.823-3.97-2.122-1.878-.327-4.136-.19-5.696.367l9.345 10.217 8.072-.004-7.751-8.458zm-21.01 32.128h8.069l7.159-7.127c-1.26-1.391-2.523-2.78-3.789-4.169l-11.442 11.296" fill="#3C3B3D"/><path fill-rule="evenodd" clip-rule="evenodd" d="M351.027 23.497h-7.978l8.332 9.176c.688.748 1.629 1.347 2.345 1.603l3.393-4.113-6.092-6.667v.001zm18.92.003c-.029.634-.281 1.253-.734 1.802-2.246 2.72-6.011 7.294-6.335 7.659-.436.488-1.19.98-2.016 1.288-.978.364-2.229.543-3.585.543 0 0-2.469-.048-3.55-.517l8.905-10.779 7.315.004zm-27.663-1.08h8.092l6.622-6.166-3.718-4.056-10.996 10.223v-.001zm27.637-.002c-.09-.555-.381-1.284-1.12-2.082l-7.456-8.142h-8.065l9.372 10.224h7.269zm-9.766-19.526h.654c.426 0 .701-.062.701-.367 0-.27-.351-.348-.701-.348h-.654v.715zm-.555-1.017h1.292c.783 0 1.169.218 1.169.665 0 .381-.347.656-.875.656l.965 1.044h-.588l-.945-1.044h-.463V4.24h-.555V1.875zm1.113 2.903c1.336 0 2.334-.75 2.334-1.717 0-.968-.998-1.716-2.334-1.716-1.345 0-2.349.748-2.349 1.716 0 .967 1.004 1.717 2.349 1.717zm-.009-3.737c.768 0 1.505.213 2.048.591.543.379.849.892.849 1.428 0 1.11-1.298 2.017-2.897 2.017-.767-.001-1.503-.214-2.046-.592-.543-.378-.849-.89-.852-1.425 0-1.115 1.303-2.019 2.898-2.019zM8.146 14.997h7.71L11.86 8.732l-3.714 6.265zm16.112 7.328h-3.634l-3.313-5.098H6.766l-3.128 5.098H0L10.658 4.93h2.507l11.091 17.395h.002zm25.054 0h-3.564V8.858h-.075l-7.636 6.696h-.581l-7.638-6.695h-.073v13.467h-3.563V5.028h3.343l8.22 7.102 8.257-7.1h3.31v17.295zM67.998 7.262h-10.51v5.223h10.149v2.233h-10.15v5.376h10.84v2.232H53.924V5.028h14.074v2.234zm8.471 5.326h2.29c3.82 0 4.911-1.37 4.877-2.814-.037-1.623-1.421-2.614-4.876-2.614h-2.293v5.428h.002zm2.69-7.558c5.022 0 8.148 1.854 8.148 4.844 0 2.003-1.493 3.5-4.145 4.235 2.253 1.038 3.634 2.637 5.525 4.793 1.054 1.192 1.675 1.775 3.383 3.423h-4.254l-3.277-3.55c-3.27-3.551-4.761-3.954-6.58-3.954h-1.49v7.504h-3.566V5.03h6.257zm15.674 17.295h3.563V5.03h-3.563v17.295zm29.451-13.44c-3.053-1.243-5.669-1.8-8.547-1.8-5.671 0-9.89 2.814-9.89 6.617 0 3.88 4.073 6.569 10.039 6.569 2.799 0 5.851-.684 8.655-1.953v2.714c-2.438.887-5.093 1.52-8.983 1.52-9.311 0-13.384-4.995-13.384-8.62 0-5.276 5.711-9.131 13.602-9.131 2.544 0 5.128.433 8.508 1.421v2.663zm11.093 6.112h7.71l-4.003-6.265-3.707 6.265zm16.108 7.328h-3.636l-3.311-5.098h-10.545l-3.126 5.098h-3.636L137.887 4.93h2.508l11.09 17.395zm25.672 0h-3.056L157.517 9.012v13.313h-3.345V5.03h2.834l16.804 13.39V5.03h3.348l-.001 17.295zm36.882 0h-3.562V8.858h-.073l-7.638 6.695h-.581l-7.638-6.695h-.073v13.467h-3.563V5.03h3.346l8.219 7.101 8.255-7.1h3.308v17.295-.001zm16.105-2.054c5.565 0 9.675-2.814 9.675-6.593 0-3.805-4.11-6.593-9.675-6.593-5.527 0-9.635 2.788-9.635 6.593 0 3.779 4.108 6.593 9.635 6.593zm0-15.47c8.186 0 13.348 4.057 13.348 8.877 0 4.665-5.02 8.874-13.421 8.874-8.11 0-13.237-4.183-13.237-8.874 0-4.793 5.276-8.877 13.31-8.877zm20.542 15.292h4.479c4.179 0 5.305-1.446 5.305-2.739 0-1.572-1.748-2.688-5.49-2.688h-4.294v5.427zm0-7.659h2.365c3.528 0 5.238-.911 5.238-2.763 0-1.294-1.053-2.41-4.328-2.41h-3.275v5.173zm-3.562-7.404h7.201c5.348 0 7.634 2.233 7.634 4.412 0 1.801-1.195 2.969-3.779 3.703v.051c3.707.482 5.964 2.18 5.964 4.513 0 2.13-2.292 4.616-8.511 4.616h-8.509V5.03zm21.32 17.295h3.562V5.03h-3.562v17.296-.001zm12.669-2.232h11.198v2.232h-14.765V5.03h3.567v15.064-.001zm28.362-12.831h-10.512v5.223h10.149v2.232h-10.149v5.377h10.836v2.231h-14.401V5.03h14.075l.002 2.233v-.001z" fill="#3C3B3D"/></svg>