<svg width="242" height="35" fill="none" xmlns="http://www.w3.org/2000/svg"><g clip-path="url(#clip0)"><path d="M42.636 34.055h-.586c-7.092 0-14.185-.013-21.274.009-1.97.006-3.542-.357-4.929-1.096-4.268-2.273-8.58-4.522-12.873-6.782-.528-.279-1.087-.548-1.556-.855-1.964-1.28-1.878-3.197.225-4.412a79.275 79.275 0 013.854-2.086c2.546-1.289 6.495-1.208 9.092.163 1.409.744 2.807 1.493 4.207 2.243 4.076 2.183 8.153 4.368 12.236 6.55a6855.34 6855.34 0 0011.25 6c.131.07.313.11.472.165-.041.033-.078.067-.118.101zM25.67.003h.494c6.01 0 12.023-.01 18.034.008 1.366.01 2.729.07 4.079.181 2.163.17 3.998.703 5.583 1.527 3.322 1.729 6.725 3.412 10.037 5.147 2.118 1.11 2.75 2.488 1.847 3.999-.912 1.529-2.893 2.476-5.87 2.78-.248.026-.5.04-.754.04-1.941-.002-3.887.022-5.823-.025-1.712-.042-3.21-.428-4.423-1.077C41.527 8.639 34.196 4.687 26.852.74c-.415-.223-.875-.423-1.316-.634l.134-.103zm5.87 6.355c-.922.475-1.828.925-2.7 1.394-4.687 2.524-9.365 5.053-14.052 7.579-2.822 1.52-7.106 1.457-9.801-.135a310.285 310.285 0 00-3.26-1.9c-2.308-1.326-2.321-3.534.075-4.82C5.277 6.609 8.814 4.777 12.323 2.93c1.242-.654 2.48-1.31 3.73-1.96a8.298 8.298 0 013.4-.942c.186-.012.45.02.577.088a5888.47 5888.47 0 0111.188 6.038c.08.044.149.095.32.203l.002.001zm5.65 21.612c.673-.337 1.321-.642 1.93-.97 3.101-1.669 6.195-3.343 9.293-5.015 1.657-.893 3.673-1.332 6.005-1.34 1.722-.006 3.455-.047 5.162.037 3.384.165 5.49 1.178 6.275 2.963.734 1.664-.06 3.12-2.379 4.29-3.21 1.618-6.483 3.203-9.736 4.8-1.308.642-2.807 1.094-4.562 1.278-.438.046-.769.013-1.117-.177-3.448-1.87-6.916-3.727-10.38-5.588-.128-.07-.251-.143-.491-.278zM143.097 2.002c.622.071 1.249.131 1.865.217 4.202.583 7.184 2.53 7.35 4.865.091 1.268.098 2.541.003 3.808-.191 2.605-3.767 4.684-8.565 5.054-2.602.201-5.134.09-7.476-.59-3.365-.976-5.037-2.553-5.23-4.57-.112-1.167-.062-2.34-.013-3.509.117-2.742 3.792-4.896 8.851-5.22.13-.009.253-.036.38-.054l2.835-.001zm5.229 7.009l-.078-.002V7.566c-.004-2.075-2.323-3.422-6.152-3.57-3.766-.146-6.652 1.114-6.894 3.129-.158 1.299-.089 2.61.017 3.914.065.807.735 1.521 1.849 2.09 1.398.714 3.116.935 4.985.908 3.107-.045 5.473-1.082 5.998-2.724.242-.754.191-1.534.275-2.302zm18.383-7.009c.878.108 1.774.189 2.636.33 2.343.368 4.369 1.17 5.717 2.263l-2.774 1.307c-.756-.354-1.445-.731-2.23-1.035-2.42-.934-5.086-1.113-7.89-.617a6.526 6.526 0 00-1.747.571c-1.145.578-1.032 1.408.193 1.94.936.408 2.063.61 3.183.808 2.05.363 4.112.705 6.147 1.09.724.137 1.406.352 2.066.567 3.729 1.216 3.387 3.355 1.97 4.602-1.359 1.197-3.483 1.793-5.957 2.054-4.187.443-7.997-.069-11.456-1.386-.659-.252-1.288-.524-1.954-.796l2.643-1.662c.186.08.354.15.516.222 1.701.747 3.501 1.396 5.7 1.639 1.586.175 3.179.227 4.76-.025.74-.119 1.396-.317 1.891-.647 1.152-.768.923-1.812-.652-2.307-1.035-.325-2.2-.543-3.345-.747-1.887-.337-3.822-.596-5.702-.94-1.452-.265-2.773-.676-3.734-1.345-1.672-1.162-1.493-2.972.406-4.184 1.452-.929 3.388-1.376 5.549-1.595.343-.034.683-.072 1.024-.107h3.04zM190.016 2c.654.074 1.315.133 1.96.221 2.467.338 4.533 1.012 6.073 2.119.108.078.206.161.329.258l-2.82 1.326c-.437-.234-.839-.476-1.292-.688-2.556-1.202-5.473-1.537-8.721-1.008-.802.131-1.519.351-2.042.72-.816.576-.75 1.308.324 1.742.78.315 1.694.564 2.615.742 1.981.382 4.021.676 6.004 1.054.998.194 1.958.44 2.866.736 3.649 1.174 3.498 3.307 1.92 4.663-1.255 1.079-3.176 1.66-5.416 1.939-4.331.54-8.293.046-11.902-1.318-.672-.254-1.311-.534-1.983-.808l2.644-1.66c.327.142.638.276.951.409 1.727.734 3.587 1.322 5.81 1.507 1.31.109 2.619.135 3.922-.034 1.638-.212 2.634-.76 2.854-1.56.139-.517-.168-.947-.907-1.285-1.085-.497-2.427-.693-3.751-.909-1.902-.31-3.816-.597-5.704-.93-1.13-.196-2.169-.519-3.047-.948-1.806-.89-2.346-2.296-1.37-3.601.923-1.236 2.725-1.953 5.004-2.354.856-.15 1.757-.224 2.638-.333h3.041zm-92.922.002c.607.073 1.221.127 1.815.222 3.047.49 5.328 1.478 6.748 3.025.21.23.151.339-.3.44-.977.22-1.93.47-2.766.677-.801-.514-1.459-1.051-2.32-1.47-2.736-1.331-7.457-1.192-9.797.253-1.154.71-1.597 1.569-1.623 2.489-.03.997-.06 1.998.034 2.993.195 2.038 2.792 3.351 6.604 3.405 3.154.044 5.386-.719 6.793-2.216l.223-.24 3.405.864c-.303.306-.553.603-.879.873-2.029 1.691-4.94 2.585-8.661 2.7-2.588.082-5.05-.175-7.232-.97-2.767-1.01-4.157-2.471-4.355-4.223a14.401 14.401 0 01.077-3.86c.396-2.486 3.993-4.468 8.576-4.86.309-.027.614-.07.923-.104.912.002 1.825.002 2.737.002h-.002zm144.904 16.282c-.261.208-.536.411-.784.624-2.707 2.33-5.415 4.659-8.107 6.993-.151.138-.233.294-.236.454-.017 1.57-.01 3.14-.01 4.71v.32h-4.088v-.325c0-1.542-.005-3.084.008-4.627.01-.225-.107-.447-.337-.635-2.895-2.438-5.774-4.88-8.658-7.322-.089-.074-.169-.152-.289-.258.22-.006.382-.015.546-.015 1.199-.001 2.396.008 3.596-.005.386-.005.602.057.803.239 2.066 1.86 4.151 3.714 6.232 5.57.084.075.179.147.313.256l1.513-1.407c1.586-1.475 3.176-2.95 4.749-4.428.184-.173.389-.232.758-.23 1.331.004 2.662-.013 3.995-.022-.004.036-.004.072-.004.108zm-70.593 9.173v-9.231h3.965V31.41c-.635 0-1.294-.038-1.933.008-.955.07-1.504-.143-2.066-.55-3.317-2.404-6.7-4.782-10.047-7.175-.688-.49-1.321-1.004-2.062-1.573v9.27h-3.995V18.208c1.156 0 2.301-.005 3.444.008.123.001.266.098.359.168 4.028 2.99 8.051 5.982 12.076 8.973.048.037.1.072.151.108l.108-.008zM109.142 2.409h.601c3.276 0 6.553-.005 9.829.001 1.525.003 3.029.095 4.46.404 2.392.518 3.734 1.564 3.742 2.948.002.434 0 .875-.13 1.301-.328 1.059-1.601 1.68-3.433 2.009-.285.051-.577.092-.927.147.456.058.854.098 1.238.16 1.8.294 2.922 1.003 3.071 2.007.095.65.093 1.304.097 1.957.002.58.197 1.1 1.164 1.455.089.033.148.12.152.182.019.226.008.453.008.745-1.155-.033-2.29-.015-3.39-.11-1.166-.102-1.735-.603-1.858-1.184-.168-.781-.168-1.572-.242-2.359-.022-.217-.034-.436-.099-.65-.182-.616-.841-1.02-1.965-1.18-.488-.073-.99-.114-1.495-.122-2.162-.013-4.323-.006-6.484-.005-.08 0-.162.007-.283.012v5.466h-4.058V2.41l.002-.001zm4.078 6.008h.576c1.872 0 3.747.003 5.62-.002.437 0 .876-.015 1.31-.045 1.646-.111 2.653-.648 2.859-1.533.056-.232.038-.47.038-.706.003-1.027-.907-1.661-2.826-1.726-2.489-.084-4.989-.043-7.485-.055-.028 0-.056.016-.092.028v4.04-.001zm101.605 16.597c.385.046.681.079.972.12 2.092.292 3.304 1.083 3.395 2.247.058.733.056 1.468.106 2.203.024.36.307.677.855.888.352.136.456.288.419.504-.027.159-.004.32-.004.468-1.138 0-2.225.056-3.282-.016-1.147-.077-1.884-.582-2.022-1.325-.136-.73-.139-1.465-.204-2.198-.021-.226-.034-.453-.092-.677-.173-.66-.897-1.056-2.086-1.21-.36-.045-.73-.096-1.097-.097-2.329-.009-4.656-.005-7.061-.005v5.474h-4.043V18.214c.177-.004.356-.012.534-.012 3.275 0 6.551-.007 9.827.002 1.696.004 3.368.102 4.932.5 2.103.536 3.213 1.439 3.315 2.677.043.523.037 1.06-.142 1.57-.383 1.094-1.807 1.673-3.706 1.969l-.616.095v-.001zm-10.069-.805h.571c1.977 0 3.952.003 5.928-.002.388-.001.776-.019 1.159-.052 1.471-.13 2.456-.6 2.664-1.358.123-.442.106-.907.015-1.354-.102-.5-.646-.895-1.536-1.064a13.208 13.208 0 00-2.211-.234c-2.076-.031-4.153-.011-6.231-.01-.113 0-.227.008-.357.013l-.002 4.06v.001zm-75.337.587c-.132.93-.104 1.875-.43 2.784-.845 2.338-4.51 4.01-8.929 4.209-2.372.107-4.664-.02-6.789-.617-2.979-.837-4.766-2.19-5.164-3.959-.373-1.663-.436-3.358.056-5.02.696-2.37 4.227-4.08 8.676-4.347 2.554-.153 5.03-.03 7.32.647 3.025.893 4.654 2.308 5.031 4.124.149.716.025 1.449.025 2.174l.204.005zm-4.343-.005h.086c0-.535.022-1.071-.005-1.606-.045-.879-.522-1.678-1.639-2.341-1.23-.731-2.827-1.027-4.613-1.06-4.477-.08-6.768 1.545-6.826 3.385a55.568 55.568 0 000 3.266c.028.952.605 1.8 1.895 2.473 1.369.715 3.07.934 4.926.92 3.25-.022 5.786-1.186 6.152-2.919.149-.697.024-1.411.024-2.118zm6.858-6.574h4.122v.34c0 2.805-.008 5.609.005 8.412.004 1.102.699 2.023 2.67 2.51.676.168 1.446.283 2.185.302 1.117.03 2.271.025 3.366-.09 2.122-.224 3.362-1.035 3.574-2.205.056-.306.084-.616.086-.923.005-2.668.003-5.336.003-8.004v-.34h4.088v8.706c0 2.596-2.891 4.413-7.662 4.8-2.526.205-5.022.153-7.407-.394-2.846-.654-4.419-1.849-4.901-3.472a3.568 3.568 0 01-.123-1.002c-.009-2.768-.006-5.535-.006-8.303v-.337zm-26.102 3.14l-3.304.822c-.585-.42-1.087-.851-1.717-1.221-2.647-1.56-7.72-1.577-10.283-.046-1.2.717-1.65 1.593-1.679 2.532-.032.997-.056 1.997.037 2.992.187 2.034 2.867 3.365 6.67 3.396 3.137.025 5.337-.738 6.73-2.223l.227-.233 3.356.853c-.571.768-1.447 1.46-2.567 2.029-4.077 2.11-10.758 1.918-14.382.506-2.158-.84-3.53-1.977-3.928-3.37-.493-1.733-.568-3.496.061-5.225.859-2.355 4.533-4.06 8.982-4.325 3.172-.189 6.076.132 8.629 1.199 1.279.526 2.301 1.212 2.978 1.997.056.065.11.132.156.2.019.024.015.053.034.117zm80.154-1.15h-7.992v-1.985h20.086v1.97h-7.993v11.196h-4.099v-11.18l-.002-.001z" fill="#3C3B3D"/></g><defs><clipPath id="clip0"><path fill="#fff" d="M0 0h242v35H0z"/></clipPath></defs></svg>