<svg width="230" height="39" fill="none" xmlns="http://www.w3.org/2000/svg"><path d="M114.365 11.918c.255.211.428.37.615.51 3.304 2.45 6.628 4.892 9.947 7.334.805.597 1.696 1.133 3.202 1.265.17.017.394.158.429.263.067.203.016.422.016.677h-.908c-3.372 0-6.729-.009-10.101.009-.633 0-.994-.106-1.335-.378-3.818-2.907-7.652-5.815-11.471-8.713-.086-.07-.154-.176-.292-.203-.392-.079-.803-.158-1.197-.158-.121 0-.326.264-.326.405-.017 1.897 0 3.794.018 5.691 0 .185.018.37.051.554.222 1.159 1.216 1.686 3.457 1.827.225.017.447.043.669.035.873-.018.858.263.873.588.018.404-.497.334-.959.334H88.375a2.573 2.573 0 00-.069-.413c-.085-.334.137-.51.838-.518a14.035 14.035 0 001.492-.105c1.797-.238 2.703-.817 2.806-1.784.051-.483.035-.966.035-1.458V5.4c0-.42 0-.86-.171-1.273-.394-1.019-1.456-1.484-3.475-1.598-.225-.01-.447-.027-.669-.018-.805.035-.856-.21-.873-.536-.018-.377.36-.404.941-.404 6.456.01 12.909-.008 19.365.01 3.269.008 6.487.175 9.5.921 3.957.984 5.53 2.802 5.154 4.92-.445 2.494-3.817 3.662-7.362 4.25-.462.097-.907.159-1.522.246zm-11.456-4.383c0 1.186.02 2.363-.015 3.549-.02.343.222.457.889.413 1.302-.08 2.602-.106 3.886-.22 2.552-.237 4.522-.887 5.24-2.24.736-1.361.701-2.731 0-4.093-.462-.878-1.507-1.555-3.201-1.897a16.055 16.055 0 00-4.419-.264c-1.797.141-2.345.448-2.378 1.388-.019 1.107 0 2.24 0 3.364h-.002z" fill="#3C3B3D"/><path d="M164.066 15.73c-.377.914-.753 1.801-1.131 2.688-.427 1.02-.889 2.03-1.3 3.048-.136.351-.376.518-1.181.51-10.633-.018-21.265-.01-31.896-.01h-.805c-.068-.078-.119-.113-.119-.149-.086-.685-.086-.685 1.232-.773 2.791-.193 3.937-.799 3.937-2.257.035-4.682.02-9.354.02-14.036v-.044c-.137-1.502-1.287-2.108-4.23-2.178-.565-.018-.994-.018-1.01-.43 0-.422.256-.52 1.043-.52 10.444.01 20.872.01 31.315.01 1.111 0 1.111 0 1.111.562V7.2c0 .229.156.501-.616.528-.666.017-.906-.123-1.027-.448a6.684 6.684 0 00-.805-1.52c-1.095-1.59-3.389-2.52-6.557-2.74-2.567-.176-5.204-.176-7.806-.176-1.421-.01-1.918.316-1.918 1.054-.018 2.213 0 4.418-.016 6.632 0 .316.187.456.821.404 1.13-.088 2.294-.115 3.372-.273 2.67-.404 3.922-1.458 4.538-2.767a3.34 3.34 0 00.307-.966c.051-.395.548-.351 1.063-.36.565-.01.701.15.701.404-.017 1.397 0 2.793 0 4.19V16.3c0 .246.069.492-.684.484-.6-.01-1.027-.01-1.113-.422-.136-.606-.446-1.204-.754-1.792-.719-1.388-2.653-2.047-5.272-2.266-.687-.062-1.388-.07-2.072-.114-.651-.044-.874.079-.874.421.035 1.599.018 3.197.018 4.796 0 .615-.018 1.23.033 1.836.086 1.115.891 1.546 3.049 1.625 2.927.114 5.855.079 8.628-.492 3.528-.72 5.667-2.143 7.329-3.803.117-.123.238-.255.359-.387.616-.738.616-.738 2.31-.457v.001zm29.944-5.691c0-1.836.086-3.68-.033-5.517-.07-1.343-1.216-1.87-3.853-1.976-.257-.009-.497-.009-.752-.017-.942-.018-1.285-.246-.975-.72.066-.097.392-.203.596-.203 3.922-.008 7.842-.008 11.781-.008.462 0 .598.123.548.316-.068.21.29.51-.412.606-.103.017-.222.009-.325.017-2.466.115-3.698.765-3.869 2.03-.051.395-.051.799-.051 1.194-.017 3.013 0 6.017-.07 9.03-.033 1.256-.427 2.494-1.351 3.671-1.473 1.87-4.126 3.11-7.909 3.601-4.795.624-9.571.58-14.108-.527-4.402-1.071-6.883-2.898-6.986-5.393-.154-3.522-.051-7.044-.086-10.566 0-.396-.051-.8-.136-1.195-.273-1.168-1.404-1.722-3.682-1.836-.924-.044-1.318-.36-.975-.8a.46.46 0 01.143-.088.83.83 0 01.198-.052c.189-.026.396-.008.585-.008h17.786c.994 0 1.095.07 1.045.562-.018.246-.222.342-.719.369-.799.028-1.594.084-2.378.166-1.267.15-2.004.598-2.244 1.239a3.18 3.18 0 00-.24 1.186c-.019 3.698-.052 7.387.016 11.085.019.685.273 1.396.721 2.037.907 1.283 2.807 2.056 5.409 2.354a21.94 21.94 0 006.575-.228c3.424-.641 4.878-2.082 5.426-3.794.292-.914.361-1.845.411-2.767.068-1.256.018-2.512.018-3.768h-.104zm-140.286.571V5.48c0-.37-.05-.738-.136-1.107-.293-1.16-1.421-1.704-3.715-1.818-.891-.044-1.318-.404-.907-.808.086-.088.445-.132.682-.14 1.868-.01 3.735-.01 5.6-.01h12.448c.565 0 1.027-.017 1.044.405 0 .386-.206.562-.994.527a10.47 10.47 0 00-1.163.035c-1.969.123-2.944.58-3.288 1.58a2.97 2.97 0 00-.17.932c-.02 3.724-.02 7.44 0 11.164 0 .878.308 1.73 1.181 2.503 1.232 1.08 3.1 1.713 5.462 1.897 2.514.202 5.015.088 7.291-.57 2.655-.765 3.733-2.065 4.23-3.514a7.095 7.095 0 00.376-2.038c.035-3.206.053-6.412-.033-9.627-.035-1.8-1.097-2.3-4.658-2.38-.975-.018-1.078-.088-1.026-.588.016-.22.152-.352.632-.343 3.922 0 7.841.009 11.78 0 .513 0 .634.14.581.35-.068.212.293.52-.48.58h-.085c-3.08.036-4.074 1.099-4.091 2.364-.018 2.977-.018 5.964-.033 8.941-.02 1.353-.207 2.706-1.012 4.015-1.403 2.3-4.346 3.768-8.954 4.304-4.16.483-8.304.43-12.327-.343-4.76-.913-8.303-2.925-8.25-6.28.033-1.625.015-3.268.015-4.901zM225.72 7.597c-.411 0-.719-.01-1.011 0-.53.017-.77-.07-.924-.36-.719-1.362-1.832-2.636-3.819-3.646-2.567-1.317-5.666-1.835-9.227-1.405-2.312.272-3.836 1.036-4.23 2.266-.376 1.16.447 2.16 2.279 2.802 1.78.624 3.748 1.107 5.684 1.599 2.824.711 5.717 1.326 8.235 2.319 3.783 1.484 5.307 3.451 4.588 5.823-.703 2.319-3.51 3.82-7.687 4.664-4.349.879-8.766.756-13.167.088-.924-.14-1.865-.29-2.807-.387-1.198-.122-1.695.01-2.021.598-.257.448-.873.316-1.386.316-.668 0-.497-.281-.497-.474-.017-2.179 0-4.366 0-6.544 0-.22-.103-.483.616-.466.565.01 1.08-.079 1.25.396.719 2.011 2.38 3.768 5.65 5.024 2.62 1.01 5.565 1.37 8.732.843 2.38-.395 3.903-1.256 4.296-2.538.447-1.415-.547-2.565-2.96-3.268-2.517-.729-5.154-1.344-7.739-1.994-2.054-.518-4.058-1.08-5.736-1.888-3.354-1.608-4.144-3.62-3.271-5.832 1.148-2.934 5.719-4.34 11.077-4.533 2.998-.105 5.788.299 8.579.747.393.06.805.114 1.216.158 1.164.14 1.78-.018 2.294-.562.291-.308 1.197-.492 1.762-.334.121.035.24.158.24.237 0 2.073-.016 4.172-.016 6.35zM.052 38.207c0-.343-.136-.659.033-.931.172-.255.616-.615 1.028-.641 3.013-.194 4.691-1.168 5.752-2.495 2.894-3.592 5.736-7.202 8.578-10.804a7346.633 7346.633 0 0016.692-21.22c.377-.475.684-.809 1.936-.809 1.267 0 1.916.21 2.413.808a9993.969 9993.969 0 0024.14 28.845c.942 1.134 1.865 2.267 2.893 3.373 1.113 1.212 2.79 2.126 5.565 2.32.857.06 1.198.263 1.113.693-.051.272-.018.545-.018.879H36.69c-.035-.22-.052-.413-.103-.607-.206-.676.308-.957 1.676-.922.874.026 1.764-.079 2.638-.15 3.202-.236 4.639-1.255 3.629-2.836-1.181-1.862-2.618-3.672-4.023-5.499-.136-.193-.77-.395-1.181-.395-7.065-.026-14.13-.026-21.195 0-.41 0-1.045.15-1.164.316-1.37 1.88-2.877 3.742-3.922 5.666-.873 1.607.464 2.45 3.715 2.722a62.64 62.64 0 003.665.194c1.267.044.941.51.994.887.05.378 0 .685-1.03.685-6.572-.018-13.146-.009-19.72-.018-.157.027-.293-.008-.617-.061zm19.02-12.815h19.244c-3.339-4.129-6.592-8.125-9.828-12.13-.136.008-.292.026-.428.035-2.961 4.014-5.94 8.02-8.986 12.095h-.002zm61.447 7.721v4.374c.033.43.394.641 1.232.703h.05c.463.026.48.044.377.298-.068 0-.137.009-.222.009H78.36c-.12 0-.273.018-.257-.088 0-.088-.035-.193.24-.202.11 0 .22-.008.325-.026.702-.08 1.01-.272 1.06-.65.02-.07.02-.132.02-.202v-4.155c0-.536-.275-.676-1.337-.703-.292-.008-.41-.096-.292-.237.035-.035.173-.052.259-.052h2.996c.394 0 .77.008 1.163 0 .172 0 .258.035.326.114a214.13 214.13 0 001.865 2.336c.48.598.96 1.195 1.439 1.8.035.036.068.071.136.133.137-.158.257-.299.36-.43 1.046-1.266 2.106-2.53 3.133-3.795.103-.114.222-.158.462-.15 1.302.01 2.587 0 3.887 0 .171 0 .308 0 .292.123 0 .106-.02.176-.292.176a3.37 3.37 0 00-.513.044 1.31 1.31 0 00-.485.143c-.13.073-.212.164-.236.261a.856.856 0 00-.066.351v4.12c0 .132.05.272.1.404.087.228.412.334.84.378.07.008.138.008.206.017.462.027.462.026.41.29h-6.06v-.167c-.016-.07.07-.096.188-.105.222-.018.462-.035.686-.07.43-.08.65-.255.735-.475.053-.15.086-.298.086-.448v-4.04c0-.035 0-.07-.05-.114l-.122.114c-1.436 1.713-2.857 3.425-4.296 5.138-.07.07-.052.185-.308.185-.189 0-.31-.018-.395-.123a1038 1038 0 00-4.193-5.148c-.035-.043-.07-.079-.103-.114-.018-.026-.035-.017-.05-.017zm103.477 2.267c.068.052.119.087.154.122l3.15 2.328c.239.176.497.325.941.369a.243.243 0 01.156.096c.033.053 0 .115 0 .185-.103 0-.191.009-.259.009h-3.183a.606.606 0 01-.378-.106l-3.544-2.687c-.051-.036-.086-.088-.154-.106a1.085 1.085 0 00-.341-.026c-.053 0-.103.07-.103.114v1.8c0 .053.017.097.017.15.068.36.376.518 1.078.562.033 0 .051 0 .068.009.429.026.462.053.359.29h-6.025c-.019-.035-.017-.07-.017-.106-.036-.114.033-.175.272-.175.137 0 .293-.01.429-.035.548-.07.823-.246.873-.536.018-.08.018-.158.018-.237v-4.05c0-.123 0-.246-.053-.369-.119-.316-.444-.456-1.077-.491-.069 0-.137-.01-.205-.01-.257.01-.257-.06-.273-.166 0-.114.101-.123.288-.123h5.994c1.01 0 2.002.053 2.928.281 1.232.299 1.729.86 1.625 1.528-.136.747-1.13 1.125-2.276 1.318a4.13 4.13 0 00-.462.061v.001zm-3.544-1.362v1.08c0 .123.068.158.308.14.394-.026.788-.034 1.181-.07.788-.07 1.386-.263 1.626-.676.24-.421.222-.852.017-1.282-.136-.281-.479-.5-1.027-.589a7.534 7.534 0 00-1.267-.079c-.633.018-.805.132-.822.457-.016.343-.016.676-.016 1.019zm-75.042 4.506c0-.035-.016-.044-.016-.062-.017-.184-.017-.184.361-.21.787-.044 1.043-.176 1.078-.58.033-.422.035-.835.035-1.256 0-1.045-.02-2.082-.035-3.127a.709.709 0 00-.069-.316c-.155-.308-.444-.43-1.077-.457-.275-.009-.412-.123-.293-.246.018-.026.121-.044.189-.044.258-.009.513 0 .77 0h4.399c1.267 0 2.484.088 3.647.369 1.456.36 2.398.94 2.827 1.74.376.702.357 1.445-.053 2.142-.462.808-1.507 1.362-3.013 1.696a15.212 15.212 0 01-3.183.342c-1.799.018-3.597.009-5.411.009h-.156zm4.385-3.206v2.143c0 .123.034.255.069.378.05.21.239.307.651.334.649.035 1.3-.01 1.883-.167.906-.246 1.335-.668 1.608-1.151.343-.624.393-1.265.325-1.906a2.325 2.325 0 00-.409-1.15c-.497-.712-1.388-1.178-2.945-1.222-.874-.026-1.182.115-1.182.554v2.187zm84.781 3.311c-3.579.009-6.317-1.414-6.335-3.294-.02-1.862 2.705-3.285 6.3-3.294 3.596-.009 6.334 1.414 6.352 3.285 0 1.871-2.723 3.294-6.317 3.303zm-3.15-3.285c-.02 0-.053 0-.07.008.121.466.189.931.343 1.388.136.395.429.773.941 1.09.205.13.458.236.744.315a4.642 4.642 0 001.883.094 3.63 3.63 0 00.849-.234c.686-.29 1.027-.694 1.233-1.124.439-.943.468-1.923.086-2.872a2.36 2.36 0 00-.976-1.142c-.805-.51-2.141-.633-3.168-.29-.6.202-.974.5-1.249.843-.497.615-.616 1.265-.616 1.924z" fill="#3C3B3D"/><path d="M94.456 38.48c-.02-.027-.02-.044-.02-.053-.017-.193-.017-.193.361-.22.873-.061 1.232-.246 1.232-.703.017-1.44 0-2.88 0-4.33v-.044c-.05-.448-.41-.632-1.285-.66-.154 0-.34.019-.323-.121 0-.167 0-.167.323-.167h9.692c.343 0 .341 0 .341.175v1.564c0 .061.052.15-.17.158-.207.009-.308-.026-.343-.14a2.504 2.504 0 00-.222-.422c-.326-.52-1.045-.826-2.072-.896-.805-.053-1.61-.053-2.413-.053-.447 0-.6.097-.6.325v2.056c0 .096.05.14.257.123.34-.027.701-.036 1.045-.088.82-.123 1.214-.448 1.403-.852a.667.667 0 00.086-.3c.017-.122.171-.104.325-.113.172 0 .222.044.222.123v2.88c0 .07.034.159-.204.15-.207 0-.326 0-.361-.141-.033-.184-.136-.368-.24-.553-.222-.43-.838-.623-1.643-.694a17.18 17.18 0 00-.701-.035c-.137-.01-.207.026-.207.097 0 .71 0 1.423.02 2.134 0 .273.22.413.734.44.975.06 1.951.052 2.877-.141 1.096-.22 1.745-.668 2.259-1.177.069-.07.137-.15.205-.229.053-.061.121-.087.273-.07.343.044.36.035.275.22-.223.553-.462 1.098-.702 1.65-.033.08-.101.115-.273.115H94.59c.02 0-.05-.008-.136-.008h.002zm79.983-6.42v2.01c0 .062.104.167-.136.185-.205.018-.359.009-.48-.114-.343-.334-.668-.668-1.095-.966-.702-.492-1.661-.782-2.894-.782-1.182 0-2.02.29-2.568.817a2.35 2.35 0 00-.651 1.22c-.136.65-.171 1.292.053 1.942.187.527.495 1.028 1.232 1.432.873.474 1.951.562 3.132.42a1.36 1.36 0 00.559-.17c.143-.088.223-.198.229-.312.035-.378.052-.746.019-1.124-.035-.343-.429-.527-1.115-.562a8.291 8.291 0 00-.495-.018c-.224 0-.206-.08-.206-.15 0-.078 0-.131.222-.131h5.719c.156 0 .222.035.204.105-.015.07.07.167-.187.185-.206.017-.429.026-.633.053a1.202 1.202 0 00-.45.124c-.12.065-.197.147-.219.236-.04.125-.062.25-.068.377-.018.396 0 .79-.018 1.195 0 .044-.085.123-.154.14-1.403.238-2.824.449-4.331.466-1.764.018-3.391-.22-4.742-.834-1.049-.473-1.724-1.126-1.9-1.836-.239-.731-.036-1.482.582-2.152.821-.879 2.174-1.432 4.041-1.67 1.507-.192 2.943-.07 4.347.229.156.035.327.062.497.08.464.043.721-.018.908-.238.136-.202.136-.202.598-.158v.001zm42.465.096h2.721c.89 0 1.746.06 2.569.255 1.181.29 1.814.816 1.746 1.484-.07.817-.891 1.344-2.501 1.598-.992.159-2.003.167-3.013.167-.581 0-.497-.043-.497.246v1.599c0 .413.325.58 1.113.64.086.01.171.01.257.019.291.008.222.123.222.21 0 .097-.136.088-.255.088h-5.514c-.137 0-.256.01-.256-.096.016-.088-.035-.185.223-.194.068 0 .136-.008.204-.017.616-.044.977-.228 1.028-.553 0-.027.017-.062.017-.097 0-1.458.018-2.916 0-4.383 0-.448-.376-.641-1.249-.685-.258-.01-.223-.088-.24-.176-.018-.105.101-.123.273-.123 1.062.018 2.107.018 3.152.018zm1.009 1.862v1.133c0 .097.051.132.256.132.428-.018.84-.018 1.267-.044.668-.044 1.113-.237 1.284-.58.222-.422.222-.852.086-1.282-.172-.59-.891-.896-2.037-.88-.583.01-.84.141-.84.431-.016.37-.016.73-.016 1.09z" fill="#3C3B3D"/><path d="M202.725 34.966v-1.59c0-.114-.017-.228-.035-.342-.085-.36-.444-.536-1.148-.571-.29-.018-.409-.106-.29-.246.017-.027.103-.044.154-.044.103-.009.207 0 .308 0h5.325c.308 0 .343.017.325.175 0 .08-.068.106-.222.115-.24.01-.48.025-.719.044a1.285 1.285 0 00-.486.137c-.129.071-.211.161-.233.258-.04.116-.063.233-.068.351 0 1.142-.018 2.284 0 3.426 0 .21.085.43.222.632.275.395.873.641 1.678.73.787.087 1.54.052 2.277-.124.924-.22 1.284-.64 1.456-1.124.083-.228.119-.465.119-.694.017-.948 0-1.906 0-2.855 0-.079-.018-.149-.036-.228-.068-.343-.358-.51-1.042-.553a8.744 8.744 0 00-.497-.018c-.223 0-.205-.079-.205-.158 0-.08.033-.132.222-.132h3.594c.172 0 .223.044.207.114-.018.07.086.176-.189.176-.891.009-1.249.316-1.249.712-.018.922 0 1.844-.018 2.766 0 .422-.051.844-.308 1.256-.429.72-1.353 1.177-2.791 1.336-1.421.158-2.842.14-4.177-.185-1.37-.334-2.123-.905-2.174-1.686-.017-.545 0-1.107 0-1.678zm-66.957 3.496v-.149c-.017-.088.051-.123.222-.132a1.76 1.76 0 00.554-.108.792.792 0 00.355-.243c.393-.466.77-.94 1.146-1.414 1.13-1.44 2.261-2.872 3.391-4.313.069-.08.152-.114.324-.114.189 0 .31.017.394.123 1.387 1.66 2.773 3.311 4.161 4.962.205.238.394.475.598.703.19.22.497.378.995.422.222.017.222.053.154.272h-5.856c0-.044 0-.097-.017-.14-.018-.088.05-.123.222-.132.189 0 .361-.018.548-.027.547-.043.787-.21.633-.474-.205-.334-.462-.659-.719-.992-.016-.036-.137-.062-.222-.062h-3.696c-.068 0-.207.026-.222.062-.24.325-.497.65-.686.983-.154.29.086.44.668.483.205.018.429.027.651.036.223.008.137.096.154.166.018.062-.019.115-.171.115-1.164 0-2.329 0-3.493-.01-.018 0-.033-.008-.086-.017h-.002zm3.339-2.24h3.392c-.585-.729-1.166-1.431-1.731-2.134-.018 0-.051.009-.068.009-.533.703-1.063 1.405-1.593 2.125zm-3.512 1.038c-.788.5-1.729.886-2.875 1.132-2.774.615-6.779.035-8.031-1.739-.906-1.282-.598-2.503 1.148-3.575.942-.57 2.191-.887 3.63-1.001a13.05 13.05 0 013.715.237c.257.053.53.088.787.105.326.018.53-.052.651-.201.154-.194.154-.194.634-.167v2.187c-.412.061-.48.035-.618-.158-.495-.677-1.3-1.221-2.618-1.529-1.012-.237-2.039-.255-2.996.097-.618.228-.943.562-1.165.913-.462.782-.497 1.59-.377 2.398.069.404.223.8.531 1.177.686.808 2.054 1.09 3.596.966 1.232-.096 2.157-.456 3.013-.887.462-.228.445-.237.924 0 .018.01.018.018.051.044v.001z" fill="#3C3B3D"/><path d="M148.007 38.523c0-.053 0-.08-.016-.114-.035-.114.034-.176.273-.176.137 0 .273-.009.412-.026.565-.07.822-.22.89-.527.018-.07.018-.14.018-.211v-4.146a.83.83 0 00-.121-.44c-.172-.271-.616-.35-1.131-.377-.341-.009-.393-.044-.341-.22.016-.026.102-.052.154-.07.033-.008.104 0 .154 0h5.667c.325 0 .343.01.325.167 0 .088-.068.114-.24.123-.246.01-.492.025-.736.044-.478.044-.718.202-.77.43a1.574 1.574 0 00-.051.396v4.049c0 .15.033.299.101.44.036.079.12.15.24.202.121.052.271.083.429.087 1.335.061 2.637.009 3.732-.466.753-.333 1.182-.773 1.525-1.238.068-.088.119-.132.323-.114.224.026.293.07.242.193a68.978 68.978 0 00-.651 1.792c-.068.193-.068.193-.446.193h-9.639c-.101.009-.205.009-.341.009h-.002zm-24.224.001h-5.992c-.156 0-.31.017-.31-.114 0-.115.053-.167.293-.167.239 0 .479-.027.701-.062.174-.022.329-.07.446-.14.117-.069.189-.155.205-.246.034-.123.051-.255.051-.378V33.35a1.681 1.681 0 00-.035-.29c-.068-.334-.409-.5-1.06-.544a2.439 2.439 0 00-.361-.01c-.205.01-.255-.043-.255-.148 0-.115.068-.15.29-.14h5.77c.189 0 .292.017.292.13 0 .106-.035.159-.275.168-1.13.026-1.438.193-1.438.782v4.197c.017.518.308.694 1.317.755.447.018.447.027.361.273v.001zm104.554-14.387H15.461v3.47h212.876v-3.47z" fill="#3C3B3D"/></svg>