<svg id="Capa_1" height="512" viewBox="0 0 458.353 458.353" width="512" xmlns="http://www.w3.org/2000/svg"><path id="path-1_77_" d="M186.206 200.529H30.095C37.327 136.25 91.377 85.941 157.559 85.941h14.324V57.294h-14.324C70.681 57.294 0 127.975 0 214.853v171.882c0 7.917 6.406 14.324 14.324 14.324h171.882c7.917 0 14.324-6.406 14.324-14.324V214.853c-.001-7.917-6.407-14.324-14.324-14.324zm-14.324 171.883H28.647V229.176h143.235z" transform="translate(0 2)"/><path id="path-1_76_" d="M444.029 200.529H287.918C295.15 136.25 349.2 85.941 415.382 85.941h14.324V57.294h-14.324c-86.878 0-157.559 70.681-157.559 157.559v171.882c0 7.917 6.406 14.324 14.324 14.324h171.882c7.917 0 14.324-6.406 14.324-14.324V214.853c0-7.917-6.406-14.324-14.324-14.324zm-14.323 171.883H286.471V229.176h143.235z" transform="translate(9 2)"/></svg>