<svg width="73" height="72" fill="none" xmlns="http://www.w3.org/2000/svg"><g clip-path="url(#clip0)"><path d="M56.93 38.995a3.785 3.785 0 00-5.357 0l-6.039 6.038c-2.8-.833-8.024-2.727-11.335-6.038-3.31-3.311-5.205-8.536-6.038-11.335l6.038-6.039a3.784 3.784 0 000-5.357L19.046 1.111a3.784 3.784 0 00-5.357 0L3.415 11.385a7.571 7.571 0 00-2.22 5.436c.087 5.395 1.515 24.132 16.282 38.9 14.767 14.766 33.505 16.19 38.903 16.281h.106c2 0 3.891-.788 5.323-2.22l10.274-10.274a3.785 3.785 0 000-5.357L56.93 38.995zm-.482 25.427c-4.727-.08-20.904-1.348-33.614-14.062C10.082 37.608 8.847 21.375 8.771 16.742l7.596-7.596 9.797 9.797-4.898 4.898a3.789 3.789 0 00-1.03 3.455c.09.436 2.314 10.767 8.603 17.056 6.288 6.288 16.62 8.512 17.055 8.603a3.754 3.754 0 003.455-1.027l4.902-4.898 9.797 9.797-7.6 7.595z" fill="#00A0C1"/></g><defs><clipPath id="clip0"><path fill="#fff" transform="translate(.5)" d="M0 0h72v72H0z"/></clipPath></defs></svg>