<svg width="49" height="48" fill="none" xmlns="http://www.w3.org/2000/svg"><g clip-path="url(#clip0)"><path d="M44.15 22.282a4.712 4.712 0 00-1.683.324l-5.74-4.784a6.214 6.214 0 00.242-1.633c0-3.379-2.667-6.094-5.985-6.094-3.317 0-5.984 2.715-5.984 6.094 0 .965.24 1.864.627 2.673l-6.963 8.38a4.853 4.853 0 00-.845-.085c-.429 0-.833.073-1.226.18l-6.135-6.247c.107-.397.18-.809.18-1.245 0-2.701-2.136-4.875-4.788-4.875-2.653 0-4.788 2.174-4.788 4.875 0 2.7 2.135 4.875 4.788 4.875.428 0 .833-.074 1.225-.18l6.136 6.246a4.724 4.724 0 00-.18 1.246c0 2.7 2.135 4.875 4.788 4.875 2.652 0 4.787-2.174 4.787-4.875a4.95 4.95 0 00-.294-1.636l6.973-8.39c.543.162 1.106.276 1.7.276a5.851 5.851 0 002.712-.685l5.742 4.785a5.14 5.14 0 00-.076.775c0 2.7 2.135 4.875 4.787 4.875 2.653 0 4.788-2.174 4.788-4.875 0-2.7-2.136-4.875-4.788-4.875z" fill="#00A0C1"/></g><defs><clipPath id="clip0"><path fill="#fff" transform="translate(.5)" d="M0 0h48v48H0z"/></clipPath></defs></svg>