<svg width="73" height="72" fill="none" xmlns="http://www.w3.org/2000/svg"><g clip-path="url(#clip0)"><path d="M70.348 2.162a2.853 2.853 0 00-1.417-.804 2.78 2.78 0 00-1.611.114L3.862 25.47c-.548.215-1.019.6-1.351 1.1A3.082 3.082 0 002 28.274c0 .61.178 1.204.51 1.704.333.501.804.885 1.352 1.101l27.69 11.52L42.63 71.398a2.983 2.983 0 001.026 1.35 2.811 2.811 0 001.57.54 2.811 2.811 0 001.622-.562 2.991 2.991 0 001.032-1.418L70.954 5.312c.197-.531.244-1.11.137-1.667a3.043 3.043 0 00-.743-1.483zM45.225 61.889l-8.048-21L50.994 26.52l-4.067-4.23-13.932 14.49-20.076-8.49L63.483 9.301 45.225 61.89z" fill="#00A0C1"/></g><defs><clipPath id="clip0"><path fill="#fff" transform="translate(.5)" d="M0 0h72v72H0z"/></clipPath></defs></svg>