<svg width="24" height="27" fill="none" xmlns="http://www.w3.org/2000/svg"><g clip-path="url(#clip0)"><path d="M23.71 2.217a.99.99 0 00-.492-.279.964.964 0 00-.558.04l-22 8.32c-.19.075-.353.208-.468.381a1.07 1.07 0 000 1.182.995.995 0 00.468.381l9.6 3.994 3.84 9.984c.072.189.196.351.356.468.16.116.349.181.544.187a.975.975 0 00.562-.194 1.03 1.03 0 00.358-.492l8-22.88a1.08 1.08 0 00-.21-1.092zM15 22.923l-2.79-7.28L17 10.662l-1.41-1.467-4.83 5.024-6.96-2.944 17.53-6.583L15 22.923z" fill="#8EC2F2"/></g><defs><clipPath id="clip0"><path fill="#fff" transform="translate(0 .875)" d="M0 0h24v26H0z"/></clipPath></defs></svg>